<svg xmlns="http://www.w3.org/2000/svg" viewBox="0 0 800 200" width="800" height="200">
  <defs>
    <style>
      .cls-1 { fill: #fff; }
      .cls-2 { fill: #003f69; }
      .cls-3 { fill: #70bd43; }
      .cls-4 { fill: none; stroke: #003f69; stroke-miterlimit: 10; stroke-width: 6px; }
      .cls-5 { font-size: 95.67px; fill: #003f69; font-family: Arial-BoldMT, Arial; font-weight: 700; }
    </style>
  </defs>
  <g>
    <circle class="cls-2" cx="220" cy="100" r="94"/>
    <circle class="cls-1" cx="220" cy="100" r="88"/>
    <path class="cls-3" d="M207.1,172.4c-15.6-10.5-28-25.2-36.5-41.8-9.1-17.8-13.3-37.4-12.6-57.3,0.4-11,2.8-21.6,6.9-31.5,5.4-13,13.6-24.2,23.9-33.3,2.5-2.2,5.1-4.2,7.8-6.1,0.8-0.6,1.9-0.3,2.4,0.5s0.3,1.9-0.5,2.4c-7.2,5-13.6,11-18.9,17.9-7.9,10.3-13.2,22.3-15.8,35.1-2.4,11.7-1.9,23.8,1.5,35.4,3.9,13.3,11.3,25.2,21.5,34.5,7.9,7.2,17.5,12.6,28.1,15.7,0.9,0.3,1.5,1.2,1.2,2.1-0.2,0.8-1,1.3-1.8,1.1-10.8-2.7-20.9-8-29.5-15.3-11.7-10-19.8-23.7-23.5-38.7-2.7-10.8-2.8-22.1-0.3-32.9,2.8-12.2,8.4-23.5,16.3-33.1,3.4-4.1,7.3-7.9,11.6-11.3,1.3-1,2.7-2,4.1-2.9,4.7-2.9,9.9-5.1,15.4-6.4,0.9-0.2,1.9,0.3,2.1,1.2s-0.3,1.9-1.2,2.1c-6.2,1.5-12,4.4-17.2,8.5-4.7,3.7-8.9,8-12.4,12.9-7.5,10.3-12.4,22.4-14.4,35-1.9,11.9-1,24.1,2.5,35.5,3.6,11.9,10.1,22.5,18.7,31,6.4,6.3,14,11.1,22.3,14.2,0.9,0.3,1.3,1.3,1,2.1-0.3,0.7-1,1.2-1.8,1.1Z"/>
    <path class="cls-2" d="M228.2,163.7v-13c0-1.6,1.3-3,3-3h7c1.6,0,3,1.3,3,3v5c0,1.6-1.3,3-3,3h-3v5c0,1.6,1.3,3,3,3h3c1.6,0,3-1.3,3,3v11c0,1.6-1.3,3-3,3h-11c-1.6,0-3-1.3-3-3v-3c0-1.6,1.3-3,3-3h3v-5c0-1.6-1.3-3-3-3h-3c-1.6,0-3-1.3-3-3Zm-4-91v-3c0-1.6,1.3-3,3-3h3c1.6,0,3-1.3,3,3v13c0,1.6-1.3,3-3,3h-7c-1.6,0-3-1.3-3-3v-5c0-1.6,1.3-3,3-3h3v-5c0-1.6-1.3-3-3-3h-3c-1.6,0-3-1.3-3-3Zm39,47h-3v-3c0-1.6-1.3-3-3-3h-5c-1.6,0-3,1.3-3,3v3h-3c-1.6,0-3,1.3-3,3v11c0,1.6,1.3,3,3,3h11c1.6,0,3-1.3,3-3v-7c0-1.6,1.3-3,3-3h5c1.6,0,3-1.3,3-3v-3c0-1.6,1.3-3,3-3Zm-26,38v-3c0-1.6,1.3-3,3-3h5c1.6,0,3,1.3,3,3v3h3c1.6,0,3-1.3,3,3v11c0,1.6,1.3,3,3,3h-11c-1.6,0-3-1.3-3-3v-7c0-1.6,1.3-3,3-3h-5c-1.6,0-3-1.3-3-3Zm-62-80h3v3c0,1.6,1.3,3,3,3h13c1.6,0,3-1.3,3-3v-3h3c1.6,0,3-1.3,3,3v11c0,1.6,1.3,3,3,3h-11c-1.6,0-3-1.3-3-3v-3h-13c-1.6,0-3-1.3-3-3v-3c0-1.6,1.3-3,3-3Z"/>
    <path class="cls-4" d="M252.2,65.7c3.5,4.1,6.4,8.8,8.5,13.8,3,7.2,4.5,15,4.5,22.9s-1.5,15.7-4.5,22.9c-2.1,5-5,9.7-8.5,13.8M248.2,71.7c1.3,1.8,2.4,3.8,3.4,5.9,1.8,4.2,2.8,8.7,2.8,13.3s-0.9,9.1-2.8,13.3c-0.9,2.1-2.1,4.1-3.4,5.9M191.8,134.3c-3.5-4.1-6.4-8.8-8.5-13.8-3-7.2-4.5-15-4.5-22.9s1.5-15.7,4.5-22.9c2.1-5,5-9.7,8.5-13.8M195.8,128.3c-1.3-1.8-2.4-3.8-3.4-5.9-1.8-4.2-2.8-8.7-2.8-13.3s0.9-9.1,2.8-13.3c0.9-2.1,2.1-4.1,3.4-5.9"/>
    <line class="cls-4" x1="222" y1="61" x2="222" y2="139"/>
    <path class="cls-4" d="M222,61c0-8.3-6.7-15-15-15s-15,6.7-15,15M237,61c0-8.3-6.7-15-15-15M207,139c0,8.3,6.7,15,15,15s15-6.7,15-15M222,139c0,8.3,6.7,15,15,15"/>
    <circle class="cls-2" cx="222" cy="46" r="5"/>
    <circle class="cls-2" cx="222" cy="154" r="5"/>
    <circle class="cls-2" cx="192" cy="61" r="5"/>
    <circle class="cls-2" cx="252" cy="61" r="5"/>
    <circle class="cls-2" cx="192" cy="139" r="5"/>
    <circle class="cls-2" cx="252" cy="139" r="5"/>
  </g>
  <text class="cls-5" transform="translate(345 135)">Kamoca</text>
</svg>
